<?xml version="1.0" encoding="utf-8"?>
<!-- Generator: Adobe Illustrator 26.1.0, SVG Export Plug-In . SVG Version: 6.00 Build 0)  -->
<svg version="1.1" id="Ebene_1" xmlns="http://www.w3.org/2000/svg" xmlns:xlink="http://www.w3.org/1999/xlink" x="0px" y="0px"
	 viewBox="0 0 100 100" style="enable-background:new 0 0 100 100;" xml:space="preserve">
<style type="text/css">
	.st0{fill:none;stroke:#494949;stroke-width:4;stroke-miterlimit:10;}
	.st1{fill:none;stroke:#FFBF31;stroke-width:4;stroke-miterlimit:10;}
	.st2{display:none;}
	.st3{display:inline;}
	.st4{fill:#FFBF31;stroke:#636363;stroke-width:0.25;stroke-miterlimit:10;}
	.st5{fill:#6B7072;}
</style>
<path id="Ebene_2_00000000186116268386371600000011114327533939574163_" class="st0" d="M50,3c26,0,47,21,47,47S76,97,50,97
	S3,75.9,3,50S24,3,50,3z"/>
<path id="Ebene_2_00000044159232711535766110000003230957625799889546_" class="st1" d="M50,3c26,0,47,21,47,47S76,97,50,97
	S3,76,3,50S24,3,50,3z"/>
<g id="Ebene_2_00000111882701611222934580000006292035858731948423_" class="st2">
	<g class="st3">
		<path class="st4" d="M67.2,60H32.8C29,60,26,56.8,26,52.9V44c0-1,0.8-1.8,1.7-1.8h3.4c0.9,0,1.7,0.8,1.7,1.8v5.4
			c0,2,1.5,3.6,3.4,3.6h27.5c1.9,0,3.4-1.6,3.4-3.6V44c0-1,0.8-1.8,1.7-1.8h3.4c0.9,0,1.7,0.8,1.7,1.8v8.9C74,56.8,71,60,67.2,60
			L67.2,60z M64,34.3c-0.7,0.7-1.8,0.7-2.5,0l-8-8.3v18c0,1-0.8,1.8-1.7,1.8h-3.4c-0.9,0-1.7-0.8-1.7-1.8V26l-8,8.3
			c-0.7,0.7-1.8,0.7-2.5,0l-2.5-2.6c-0.7-0.7-0.7-1.9,0-2.6l14.2-14.8c0.1-0.1,1.2-0.8,2.3-0.8s2.3,0.7,2.3,0.8l14,14.7
			c0.7,0.7,0.7,1.9,0,2.6L64,34.3L64,34.3z"/>
	</g>
</g>
<g id="Ebene_3">
	<path class="st5" d="M23.1,71.6h1.6v3.2c-0.7,0.5-1.5,0.8-2.5,0.8c-2,0-3.7-1.4-3.7-3.7c0-2.3,1.7-3.7,3.7-3.7
		c0.9,0,1.6,0.2,2.2,0.6v1.8c-0.6-0.5-1.4-0.6-2-0.6c-1.3,0-2.2,0.9-2.2,2.1c0,1.2,0.8,2.1,1.9,2.1c0.3,0,0.6-0.1,0.9-0.2V71.6z
		 M31,68.4l2.6,7.1h-1.9l-0.6-1.6h-2.5l-0.5,1.6h-1.9l2.6-7.1H31z M30.8,72.4L30,70.2l-0.8,2.2H30.8z M37.5,68.4h-1.8v7.1h4.7v-1.6
		h-2.9V68.4z M44.3,68.4h-1.8v7.1h4.7v-1.6h-2.9V68.4z M49.4,75.5H54v-1.6h-2.9v-1.2h2.6v-1.5h-2.6V70H54v-1.6h-4.7V75.5z
		 M60.2,72.9l2,2.6H60l-1.6-2.3h-0.1v2.3h-1.8v-7.1h2.4c1.7,0,2.9,0.8,2.9,2.4C61.8,71.5,61.4,72.5,60.2,72.9z M60,70.9
		c0-0.6-0.4-0.9-1.1-0.9h-0.6v1.7h0.5C59.6,71.7,60,71.4,60,70.9z M68.3,68.4l-1.5,2.7h0l-1.6-2.7h-2l2.6,4.3v2.8h1.8v-2.8l2.6-4.3
		H68.3z"/>
	<path class="st5" d="M19.2,62.7h2.5v0.8h-1.5v0.6h1.4v0.8h-1.4v0.7h1.5v0.8h-2.5V62.7z M24.9,63.6h-1l-0.5,0.8h0L23,63.6h-1
		l0.9,1.4l-0.9,1.4h1l0.5-0.8h0l0.5,0.8h1.1L24,65L24.9,63.6z M28.2,65c0,0.9-0.6,1.5-1.2,1.5c-0.4,0-0.7-0.2-0.9-0.5v1.4h-0.9v-3.8
		H26l0.1,0.4c0.2-0.3,0.5-0.5,0.9-0.5C27.6,63.5,28.2,64.1,28.2,65z M27.3,65c0-0.4-0.2-0.6-0.6-0.6c-0.3,0-0.6,0.3-0.6,0.6
		c0,0.4,0.2,0.6,0.6,0.6C27.1,65.7,27.3,65.4,27.3,65z M31.3,65c0,0.1,0,0.2,0,0.3h-1.8c0.1,0.3,0.5,0.5,0.8,0.5
		c0.3,0,0.6-0.1,0.8-0.2v0.7c-0.3,0.2-0.6,0.2-1,0.2c-1,0-1.6-0.6-1.6-1.5c0-0.9,0.6-1.5,1.4-1.5C30.7,63.5,31.3,64,31.3,65z
		 M30.4,64.7c0-0.3-0.2-0.5-0.5-0.5c-0.3,0-0.5,0.2-0.6,0.5H30.4z M32.6,64L32.6,64l-0.1-0.4h-0.7v2.8h0.9v-1.3
		c0-0.5,0.3-0.7,0.6-0.7c0.1,0,0.2,0,0.2,0v-0.9c-0.1,0-0.1,0-0.2,0C33.1,63.6,32.8,63.7,32.6,64z M34,66.4h0.9v-2.8H34V66.4z
		 M34.4,62.3c-0.3,0-0.5,0.2-0.5,0.5c0,0.3,0.2,0.5,0.5,0.5c0.3,0,0.5-0.2,0.5-0.5C34.9,62.6,34.7,62.3,34.4,62.3z M38.1,65
		c0,0.1,0,0.2,0,0.3h-1.8c0.1,0.3,0.5,0.5,0.8,0.5c0.3,0,0.6-0.1,0.8-0.2v0.7c-0.3,0.2-0.6,0.2-1,0.2c-1,0-1.6-0.6-1.6-1.5
		c0-0.9,0.6-1.5,1.4-1.5C37.5,63.5,38.1,64,38.1,65z M37.2,64.7c0-0.3-0.2-0.5-0.5-0.5c-0.3,0-0.5,0.2-0.6,0.5H37.2z M40.2,63.5
		c-0.4,0-0.7,0.2-0.8,0.5h0l-0.1-0.4h-0.7v2.8h0.9v-1.6c0-0.2,0.2-0.4,0.4-0.4s0.4,0.1,0.4,0.4v1.6h0.9v-1.9
		C41.2,63.9,40.8,63.5,40.2,63.5z M41.6,65c0,0.9,0.7,1.5,1.5,1.5c0.3,0,0.6-0.1,0.8-0.2v-0.8c-0.2,0.2-0.5,0.2-0.7,0.2
		c-0.4,0-0.7-0.2-0.7-0.6s0.3-0.6,0.7-0.6c0.2,0,0.5,0.1,0.7,0.2v-0.8c-0.2-0.1-0.6-0.2-0.8-0.2C42.3,63.5,41.6,64.1,41.6,65z
		 M47.1,65c0,0.1,0,0.2,0,0.3h-1.8c0.1,0.3,0.5,0.5,0.8,0.5c0.3,0,0.6-0.1,0.8-0.2v0.7c-0.3,0.2-0.6,0.2-1,0.2c-1,0-1.6-0.6-1.6-1.5
		c0-0.9,0.6-1.5,1.4-1.5C46.5,63.5,47.1,64,47.1,65z M46.2,64.7c0-0.3-0.2-0.5-0.5-0.5c-0.3,0-0.5,0.2-0.6,0.5H46.2z M50.7,65.1
		l1,1.3h-1.1l-0.9-1.2h0v1.2h-1v-3.7h1.3c0.9,0,1.5,0.4,1.5,1.3C51.6,64.3,51.4,64.8,50.7,65.1z M50.6,64c0-0.3-0.2-0.5-0.6-0.5
		h-0.3v0.9H50C50.4,64.5,50.6,64.3,50.6,64z M54.7,65c0,0.1,0,0.2,0,0.3h-1.8c0.1,0.3,0.5,0.5,0.8,0.5c0.3,0,0.6-0.1,0.8-0.2v0.7
		c-0.3,0.2-0.6,0.2-1,0.2c-1,0-1.6-0.6-1.6-1.5c0-0.9,0.6-1.5,1.4-1.5C54.1,63.5,54.7,64,54.7,65z M53.8,64.7c0-0.3-0.2-0.5-0.5-0.5
		c-0.3,0-0.5,0.2-0.6,0.5H53.8z M58.1,65c0,0.9-0.6,1.5-1.2,1.5c-0.4,0-0.7-0.2-0.9-0.5v1.4h-0.9v-3.8h0.8L56,64
		c0.2-0.3,0.5-0.5,0.9-0.5C57.5,63.5,58.1,64.1,58.1,65z M57.2,65c0-0.4-0.2-0.6-0.6-0.6c-0.3,0-0.6,0.3-0.6,0.6
		c0,0.4,0.2,0.6,0.6,0.6C57,65.7,57.2,65.4,57.2,65z M61.4,65c0,0.9-0.7,1.5-1.5,1.5s-1.5-0.6-1.5-1.5c0-0.9,0.7-1.5,1.5-1.5
		C60.8,63.5,61.4,64.1,61.4,65z M60.5,65c0-0.4-0.3-0.6-0.6-0.6c-0.3,0-0.6,0.2-0.6,0.6s0.3,0.6,0.6,0.6
		C60.2,65.7,60.5,65.4,60.5,65z M62.7,64L62.7,64l-0.1-0.4h-0.7v2.8h0.9v-1.3c0-0.5,0.3-0.7,0.6-0.7c0.1,0,0.2,0,0.2,0v-0.9
		c-0.1,0-0.1,0-0.2,0C63.2,63.6,62.9,63.7,62.7,64z M65.2,65.2v-0.9h0.7v-0.8h-0.7V63h-0.9v0.6h-0.4v0.8h0.4v0.9
		c0,0.7,0.4,1.2,1.2,1.2c0.2,0,0.3,0,0.5-0.1v-0.8c-0.1,0-0.2,0-0.2,0C65.4,65.7,65.2,65.6,65.2,65.2z M67.6,64.7
		c-0.3-0.1-0.4-0.1-0.4-0.2c0-0.1,0.1-0.2,0.3-0.2c0.3,0,0.7,0.1,0.9,0.2v-0.8c-0.2-0.1-0.6-0.2-0.9-0.2c-0.8,0-1.2,0.4-1.2,0.9
		c0,0.5,0.4,0.7,0.9,0.8c0.4,0.1,0.5,0.1,0.5,0.3c0,0.1-0.1,0.2-0.4,0.2c-0.4,0-0.7-0.1-1-0.3v0.8c0.2,0.1,0.6,0.2,1,0.2
		c0.8,0,1.2-0.4,1.2-0.9C68.6,65,68.1,64.8,67.6,64.7z"/>
	<path class="st5" d="M54.3,77.4h2.5v0.8h-1.5v0.6h1.4v0.8h-1.4v0.7h1.5v0.8h-2.5V77.4z M60.1,78.4h-1l-0.5,0.8h0l-0.5-0.8h-1
		l0.9,1.4l-0.9,1.4h1l0.5-0.8h0l0.5,0.8h1.1l-1-1.4L60.1,78.4z M61.5,80v-0.9h0.7v-0.8h-0.7v-0.6h-0.9v0.6h-0.4v0.8h0.4V80
		c0,0.7,0.4,1.2,1.2,1.2c0.2,0,0.3,0,0.5-0.1v-0.8c-0.1,0-0.2,0-0.3,0C61.7,80.4,61.5,80.3,61.5,80z M65.3,79.7c0,0.1,0,0.2,0,0.3
		h-1.8c0.1,0.3,0.5,0.5,0.8,0.5c0.3,0,0.6-0.1,0.8-0.2V81c-0.3,0.2-0.6,0.2-1,0.2c-1,0-1.6-0.6-1.6-1.5c0-0.9,0.6-1.5,1.4-1.5
		C64.7,78.3,65.3,78.8,65.3,79.7z M64.4,79.5c0-0.3-0.2-0.5-0.5-0.5c-0.3,0-0.5,0.2-0.5,0.5H64.4z M67.4,78.3
		c-0.4,0-0.7,0.2-0.8,0.5h0l-0.1-0.4h-0.7v2.8h0.9v-1.6c0-0.2,0.2-0.4,0.4-0.4s0.4,0.1,0.4,0.4v1.6h0.9v-1.9
		C68.4,78.7,68,78.3,67.4,78.3z M70.2,79.4c-0.3-0.1-0.4-0.1-0.4-0.2c0-0.1,0.1-0.2,0.3-0.2c0.3,0,0.7,0.1,0.9,0.2v-0.8
		c-0.2-0.1-0.6-0.2-0.9-0.2c-0.8,0-1.2,0.4-1.2,0.9c0,0.5,0.4,0.7,0.9,0.8c0.4,0.1,0.5,0.1,0.5,0.3c0,0.1-0.1,0.2-0.4,0.2
		c-0.4,0-0.7-0.1-1-0.3V81c0.2,0.1,0.6,0.2,1,0.2c0.8,0,1.2-0.4,1.2-0.9C71.2,79.7,70.7,79.5,70.2,79.4z M72.1,77.1
		c-0.3,0-0.5,0.2-0.5,0.5c0,0.3,0.2,0.5,0.5,0.5c0.3,0,0.5-0.2,0.5-0.5C72.6,77.3,72.4,77.1,72.1,77.1z M71.6,81.2h0.9v-2.8h-0.9
		V81.2z M76,79.8c0,0.9-0.7,1.5-1.5,1.5S73,80.6,73,79.8c0-0.9,0.7-1.5,1.5-1.5C75.4,78.3,76,78.9,76,79.8z M75.1,79.8
		c0-0.4-0.3-0.6-0.6-0.6c-0.3,0-0.6,0.2-0.6,0.6s0.3,0.6,0.6,0.6C74.8,80.4,75.1,80.2,75.1,79.8z M78.1,78.3c-0.4,0-0.7,0.2-0.8,0.5
		h0l-0.1-0.4h-0.7v2.8h0.9v-1.6c0-0.2,0.2-0.4,0.4-0.4s0.4,0.1,0.4,0.4v1.6h0.9v-1.9C79.1,78.7,78.8,78.3,78.1,78.3z"/>
</g>
<path class="st4" d="M37.9,40.8c2.7,0,4.9-2.2,4.9-4.9s-2.2-4.9-4.9-4.9S33,33.1,33,35.9S35.2,40.8,37.9,40.8z M69.1,53.9
	c0,3.6-2.9,6.6-6.6,6.6H29.7c-3.6,0-6.6-2.9-6.6-6.6V27.6c0-3.6,2.9-6.6,6.6-6.6c0-3.6,2.9-6.6,6.6-6.6h32.8c3.6,0,6.6,2.9,6.6,6.6
	v26.2C75.6,51,72.7,53.9,69.1,53.9z M69.1,17.8H36.2c-1.8,0-3.3,1.5-3.3,3.3h29.5c3.6,0,6.6,2.9,6.6,6.6v23c1.8,0,3.3-1.5,3.3-3.3
	V21.1C72.3,19.3,70.9,17.8,69.1,17.8z M29.7,24.4c-1.8,0-3.3,1.5-3.3,3.3v26.2l8.7-7.7c0.6-0.6,1.4-0.6,2.1-0.2l8.7,5.8l12.2-12.2
	c0.5-0.5,1.3-0.6,1.9-0.3l5.8,6.4v-18c0-1.8-1.5-3.3-3.3-3.3C62.5,24.4,29.7,24.4,29.7,24.4z"/>
</svg>
